<svg width="52" height="48" viewBox="0 0 52 48" fill="none" xmlns="http://www.w3.org/2000/svg">
<g filter="url(#filter0_d_27_74)">
<path d="M43.6001 39.5993C44.767 39.5993 45.8861 39.1357 46.7113 38.3106C47.5364 37.4855 48 36.3663 48 35.1994V24.4548C48 23.2878 47.5364 22.1687 46.7113 21.3436C45.8861 20.5184 44.767 20.0549 43.6001 20.0549H37.493C37.493 18.5105 37.5854 16.9617 37.7658 15.4173C38.0386 13.7806 38.4962 12.3242 39.1298 11.0526C39.7677 9.77663 40.5861 8.77785 41.5893 8.04746C42.5881 7.22907 43.8597 6.81988 45.4084 6.81988V0C42.8609 0 40.6345 0.54559 38.7206 1.63677C36.8233 2.71689 35.192 4.20831 33.9466 6.00149C32.6967 7.97844 31.7755 10.1449 31.2187 12.4166C30.6576 14.9235 30.3831 17.486 30.4003 20.0549V35.1994C30.4003 36.3663 30.8639 37.4855 31.689 38.3106C32.5142 39.1357 33.6333 39.5993 34.8002 39.5993H43.6001ZM17.2005 39.5993C18.3675 39.5993 19.4866 39.1357 20.3117 38.3106C21.1369 37.4855 21.6005 36.3663 21.6005 35.1994V24.4548C21.6005 23.2878 21.1369 22.1687 20.3117 21.3436C19.4866 20.5184 18.3675 20.0549 17.2005 20.0549H11.0934C11.0934 18.5105 11.1858 16.9617 11.3662 15.4173C11.639 13.7806 12.0966 12.3242 12.7302 11.0526C13.3682 9.77663 14.1866 8.77785 15.1898 8.04746C16.1886 7.22907 17.4601 6.81988 19.0089 6.81988V0C16.4613 0 14.235 0.54559 12.321 1.63677C10.4237 2.71689 8.79247 4.20831 7.5471 6.00149C6.29719 7.97844 5.37593 10.1449 4.81915 12.4166C4.2581 14.9235 3.98354 17.486 4.00076 20.0549V35.1994C4.00076 36.3663 4.46432 37.4855 5.28947 38.3106C6.11462 39.1357 7.23375 39.5993 8.40069 39.5993H17.2005Z" fill="#E9B01E"/>
</g>
<defs>
<filter id="filter0_d_27_74" x="0" y="0" width="52" height="47.5994" filterUnits="userSpaceOnUse" color-interpolation-filters="sRGB">
<feFlood flood-opacity="0" result="BackgroundImageFix"/>
<feColorMatrix in="SourceAlpha" type="matrix" values="0 0 0 0 0 0 0 0 0 0 0 0 0 0 0 0 0 0 127 0" result="hardAlpha"/>
<feOffset dy="4"/>
<feGaussianBlur stdDeviation="2"/>
<feComposite in2="hardAlpha" operator="out"/>
<feColorMatrix type="matrix" values="0 0 0 0 0 0 0 0 0 0 0 0 0 0 0 0 0 0 0.25 0"/>
<feBlend mode="normal" in2="BackgroundImageFix" result="effect1_dropShadow_27_74"/>
<feBlend mode="normal" in="SourceGraphic" in2="effect1_dropShadow_27_74" result="shape"/>
</filter>
</defs>
</svg>
